<svg width="100" height="100" viewBox="0 0 100 100" fill="none" xmlns="http://www.w3.org/2000/svg">
<g clip-path="url(#clip0)">
<path d="M85.9963 33.7977C85.9958 32.4524 85.7047 31.2638 85.1163 30.2438C84.5383 29.2405 83.6724 28.3999 82.5114 27.7349C72.9261 22.271 63.3315 16.8238 53.7496 11.3544C51.1663 9.88021 48.6615 9.93382 46.0974 11.4294C42.2822 13.6538 23.1808 24.4727 17.4889 27.7319C15.145 29.0735 14.0042 31.1266 14.0037 33.7952C14 44.7835 14.0037 55.7713 14 66.7599C14.0006 68.0755 14.2793 69.241 14.8418 70.246C15.42 71.2794 16.2978 72.1433 17.4858 72.8233C23.178 76.0824 42.2819 86.9005 46.0963 89.1255C48.6615 90.6219 51.1663 90.6752 53.7505 89.2005C63.3327 83.7308 72.9278 78.2838 82.5145 72.8199C83.7025 72.1402 84.5802 71.2758 85.1585 70.2433C85.7202 69.2383 85.9994 68.0727 86 66.7569C86 66.7569 86 44.7863 85.9963 33.7977" fill="#A9B9CB"/>
<path d="M53.6847 11.4265C51.1056 9.95598 48.605 10.0096 46.0451 11.5013C42.2361 13.7199 23.1659 24.5107 17.4833 27.7615C15.143 29.0996 14.0042 31.1474 14.0037 33.809C14 44.7688 14.0037 55.7282 14 66.6882C14.0006 68.0004 14.2787 69.1629 14.8404 70.1651C15.4178 71.196 16.2942 72.0576 17.4802 72.7357C19.3687 73.814 21.2586 74.89 23.1499 75.9635L75.7695 23.9935C68.407 19.8063 61.0424 15.6224 53.6847 11.4265Z" fill="#7F8B99"/>
<path d="M57.4408 45.2689L68.6455 45.347C68.6455 40.7361 63.9199 29.4445 50.3718 29.4445C41.74 29.4445 30.1356 34.8645 30.1356 50.4472C30.1356 66.0297 41.5113 71.1111 50.3718 71.1111C64.7204 71.1111 68.1497 61.305 68.1497 55.7634L57.4602 55.1597C57.4602 55.1597 57.7462 61.5695 50.3147 61.5695C43.4551 61.5695 42.3104 53.27 42.3104 50.4472C42.3104 46.1564 43.8553 39.2683 50.3147 39.2683C56.7745 39.2683 57.4408 45.2689 57.4408 45.2689" fill="white"/>
</g>
<defs>
<clipPath id="clip0">
<rect width="72" height="80" fill="white" transform="translate(14 10)"/>
</clipPath>
</defs>
</svg>
