<svg width="100" height="100" viewBox="0 0 100 100" fill="none" xmlns="http://www.w3.org/2000/svg">
<path d="M50 57.7316C54.3147 57.7316 57.8125 54.2338 57.8125 49.9191C57.8125 45.6043 54.3147 42.1066 50 42.1066C45.6853 42.1066 42.1875 45.6043 42.1875 49.9191C42.1875 54.2338 45.6853 57.7316 50 57.7316Z" fill="#00D8FF"/>
<path d="M50 67.8308C40.6098 68.0579 31.2431 66.7921 22.25 64.0808C18.0957 62.7638 14.221 60.6893 10.8219 57.962C9.52478 57.0303 8.4446 55.829 7.65544 54.4406C6.86629 53.0521 6.38684 51.5094 6.25 49.9182C6.25 44.7526 11.925 39.6901 21.4312 36.3776C30.6648 33.4425 40.3123 32.0199 50 32.1651C59.5585 32.0316 69.0767 33.4284 78.1937 36.3026C82.1946 37.5781 85.9379 39.5524 89.25 42.1339C90.5249 43.0221 91.5889 44.1799 92.3666 45.5251C93.1442 46.8704 93.6165 48.3702 93.75 49.9182C93.75 55.287 87.4063 60.7276 77.1875 64.1089C68.3685 66.7319 59.1995 67.9871 50 67.8308V67.8308ZM50 35.9026C40.7316 35.7787 31.5026 37.1311 22.6594 39.9089C13.9094 42.962 9.9875 47.137 9.9875 49.9089C9.9875 52.8089 14.2031 57.3683 23.4594 60.5339C32.0627 63.1147 41.0207 64.316 50 64.0933C58.8013 64.2506 67.5748 63.0598 76.0156 60.562C85.625 57.3776 90 52.812 90 49.9182C89.8423 48.9252 89.4804 47.9757 88.9372 47.1296C88.3939 46.2835 87.6811 45.5593 86.8438 45.0026C83.8805 42.7124 80.5366 40.9627 76.9656 39.8339C68.2438 37.0956 59.1406 35.7685 50 35.9026V35.9026Z" fill="#00D8FF"/>
<path d="M32.2502 88.8844C30.7924 88.9178 29.3518 88.5641 28.0752 87.8594C23.6002 85.2781 22.0502 77.8344 23.9283 67.9437C25.9991 58.4784 29.5871 49.4103 34.5533 41.0906C39.2118 32.7441 45.1757 25.1966 52.2189 18.7344C55.3226 15.9053 58.9029 13.6485 62.7939 12.0687C64.2013 11.4092 65.7365 11.0673 67.2908 11.0673C68.8451 11.0673 70.3803 11.4092 71.7877 12.0687C76.4408 14.75 77.9814 22.9625 75.8096 33.5031C73.6748 42.4549 70.1801 51.0263 65.4471 58.9187C60.9525 67.1667 55.1763 74.6485 48.3346 81.0844C45.1183 84.0243 41.3856 86.3436 37.3252 87.925C35.6996 88.5283 33.9838 88.8527 32.2502 88.8844V88.8844ZM37.7908 42.9469C33.0536 50.9135 29.6148 59.5834 27.6033 68.6312C25.8752 77.7406 27.5346 83.2187 29.9471 84.6125C32.4471 86.0594 38.5158 84.6875 45.8846 78.25C52.4159 72.0842 57.929 64.9225 62.2189 57.0312C66.7531 49.486 70.1055 41.291 72.1596 32.7312C74.2033 22.8094 72.4377 16.7344 69.9314 15.2906C68.9921 14.9307 67.9883 14.7696 66.9835 14.8174C65.9787 14.8653 64.9948 15.1211 64.0939 15.5687C60.6304 16.9979 57.4462 19.0269 54.6877 21.5625C47.9585 27.7524 42.2617 34.9779 37.8127 42.9656L37.7908 42.9469Z" fill="#00D8FF"/>
<path d="M67.7407 88.925C63.5063 88.925 58.1282 86.3625 52.5282 81.5469C45.3616 75.0259 39.2969 67.3888 34.5688 58.9313C29.6649 50.7262 26.1053 41.7893 24.0251 32.4594C23.1229 28.3547 22.9557 24.1225 23.5313 19.9594C23.6644 18.4151 24.1347 16.9187 24.9089 15.5759C25.6832 14.233 26.7427 13.0764 28.0126 12.1876C32.6595 9.49693 40.5438 12.2626 48.5907 19.4063C55.28 25.7256 60.9607 33.0335 65.4344 41.075C70.3354 49.0886 73.9323 57.8298 76.0907 66.9719C77.0317 71.2272 77.1768 75.62 76.5188 79.9282C76.3623 81.5169 75.864 83.0531 75.0581 84.4312C74.2523 85.8094 73.1579 86.997 71.8501 87.9125C70.5943 88.6085 69.176 88.958 67.7407 88.925V88.925ZM37.8032 57.05C42.3389 65.1326 48.1322 72.4418 54.9657 78.7032C61.9938 84.75 67.5688 86.05 69.9657 84.6407C72.4657 83.1875 74.3094 77.2563 72.4094 67.6594C70.3278 58.9311 66.8778 50.5873 62.1876 42.9375C57.9183 35.2411 52.4961 28.2434 46.1095 22.1876C38.5345 15.4626 32.3907 13.9594 29.8876 15.4094C29.1074 16.0434 28.4672 16.8323 28.0073 17.7263C27.5474 18.6202 27.2779 19.5998 27.2157 20.6032C26.7188 24.3159 26.8807 28.0873 27.6938 31.7438C29.6948 40.6661 33.1086 49.2113 37.8063 57.0563L37.8032 57.05Z" fill="#00D8FF"/>
</svg>
