<svg width="100" height="100" viewBox="0 0 100 100" fill="none" xmlns="http://www.w3.org/2000/svg">
<path d="M13 13H87V87H13V13Z" fill="#F7DF1E"/>
<path d="M32.4573 74.8394L38.12 71.4123C39.2127 73.3493 40.2064 74.9883 42.5903 74.9883C44.8754 74.9883 46.3164 74.0945 46.3164 70.6176V46.9729H53.2703V70.7159C53.2703 77.9185 49.0483 81.197 42.8884 81.197C37.3254 81.197 34.0962 78.316 32.457 74.8388" fill="black"/>
<path d="M57.0478 74.0944L62.71 70.8161C64.2007 73.2503 66.138 75.0384 69.5651 75.0384C72.4468 75.0384 74.2841 73.5977 74.2841 71.6107C74.2841 69.2265 72.3965 68.3819 69.2174 66.9915L67.4792 66.2457C62.462 64.1104 59.134 61.4279 59.134 55.7652C59.134 50.5493 63.1077 46.5753 69.3171 46.5753C73.738 46.5753 76.9171 48.1154 79.2019 52.1389L73.7872 55.6163C72.5948 53.4804 71.3038 52.6361 69.3168 52.6361C67.2801 52.6361 65.9885 53.9276 65.9885 55.6163C65.9885 57.7025 67.2801 58.5474 70.2603 59.8389L71.9987 60.5839C77.9101 63.1175 81.238 65.7003 81.238 71.5116C81.238 77.7709 76.3205 81.1981 69.714 81.1981C63.2566 81.1981 59.084 78.1184 57.0475 74.0946" fill="black"/>
</svg>
