<svg width="100" height="100" viewBox="0 0 100 100" fill="none" xmlns="http://www.w3.org/2000/svg">
<path d="M22.5994 82.5028L16.2798 11.625H85.7204L79.3923 82.4916L50.9579 90.375L22.5994 82.5028Z" fill="#E44F26"/>
<path d="M51 84.3507L73.9781 77.9804L79.3837 17.4216H51V84.3507Z" fill="#F1662A"/>
<path d="M51 43.7069H39.4969L38.7038 34.8054H51V26.1119H29.2031L29.4113 28.4463L31.5459 52.4004H51V43.7069V43.7069Z" fill="#EBEBEB"/>
<path d="M50.9999 66.283L50.9605 66.2943L41.2799 63.6815L40.6611 56.7487H31.9339L33.1517 70.3949L50.9605 75.3393L50.9999 75.328V66.283Z" fill="#EBEBEB"/>
<path d="M50.9691 43.7078V52.4012H61.6735L60.6666 63.6765L50.9691 66.2921V75.3371L68.7919 70.3956L68.9213 68.9274L70.9632 46.0421L71.1769 43.7078H50.9691V43.7078Z" fill="white"/>
<path d="M50.9691 26.1119V34.8054H71.9672L72.1416 32.8535L72.5381 28.4463L72.7463 26.1119H50.9691V26.1119Z" fill="white"/>
</svg>
