<svg width="100" height="100" viewBox="0 0 100 100" fill="none" xmlns="http://www.w3.org/2000/svg">
<path d="M21.5994 81.5028L15.2825 10.625H84.7175L78.3922 81.4916L49.9578 89.375L21.5994 81.5028Z" fill="#1572B6"/>
<path d="M50 83.3507L72.9781 76.9804L78.3837 16.4216H50V83.3507Z" fill="#33A9DC"/>
<path d="M50 42.0999H61.5031L62.2962 33.1983H50V24.5049H71.7969L71.5888 26.8364L69.4541 50.7933H50V42.0999V42.0999Z" fill="white"/>
<path d="M50.0534 64.676L50.0141 64.6872L40.3334 62.0716L39.7147 55.1388H30.9875L32.2053 68.7879L50.0112 73.7322L50.0534 73.721V64.676V64.676Z" fill="#EBEBEB"/>
<path d="M60.7636 50.4244L59.7173 62.0654L50.0226 64.681V73.726L67.8426 68.7873L67.9748 67.3191L69.4851 50.4244H60.7636V50.4244Z" fill="white"/>
<path d="M50.0308 24.5049V33.1983H29.0327L28.8583 31.2436L28.4617 26.8364L28.2536 24.5049H50.0308V24.5049Z" fill="#EBEBEB"/>
<path d="M49.9999 42.0995V50.7929H40.4402L40.2658 48.8382L39.8721 44.431L39.6639 42.0995H49.9999V42.0995Z" fill="#EBEBEB"/>
</svg>
