<svg width="100" height="100" viewBox="0 0 100 100" fill="none" xmlns="http://www.w3.org/2000/svg">
<path d="M13 77.4583C13 82.7285 17.2721 87 22.5417 87H77.458C82.7285 87 87 82.7279 87 77.4583V22.542C87 17.2715 82.7279 13 77.4583 13H22.542C17.2715 13 13 17.2721 13 22.5417V77.458V77.4583Z" fill="#563D7C"/>
<path d="M43.6861 45.7329V35.2535H52.9104C53.7891 35.2535 54.6361 35.3266 55.4518 35.4732C56.2675 35.6194 56.9893 35.8807 57.6169 36.2574C58.2442 36.634 58.7463 37.157 59.1229 37.8261C59.4993 38.4956 59.6877 39.3533 59.6877 40.3988C59.6877 42.2815 59.1229 43.6412 57.9932 44.4778C56.8639 45.3146 55.4206 45.7329 53.6634 45.7329H43.6861V45.7329ZM33.834 27.5977V72.4023H55.546C57.5542 72.4023 59.51 72.1514 61.4134 71.6493C63.3169 71.1472 65.0111 70.3734 66.4963 69.3276C67.9812 68.2818 69.1632 66.9324 70.0417 65.2801C70.9204 63.6276 71.3595 61.6718 71.3595 59.4127C71.3595 56.6097 70.6796 54.2148 69.3202 52.2278C67.9604 50.2405 65.9 48.8495 63.1388 48.0546C65.147 47.0926 66.6637 45.8583 67.6887 44.3523C68.7134 42.8463 69.2259 40.9639 69.2259 38.7046C69.2259 36.6129 68.8808 34.856 68.1905 33.4335C67.5002 32.0114 66.5275 30.8713 65.2724 30.0136C64.0176 29.156 62.5116 28.5388 60.7544 28.1625C58.9975 27.7858 57.0521 27.5977 54.9185 27.5977H33.834V27.5977ZM43.6861 64.7465V52.4472H54.4164C56.55 52.4472 58.2653 52.9386 59.5623 53.922C60.859 54.9051 61.5077 56.547 61.5077 58.8479C61.5077 60.0195 61.3088 60.9815 60.9113 61.7345C60.5139 62.4875 59.9806 63.0838 59.3111 63.5229C58.6419 63.9623 57.8678 64.2759 56.9893 64.4644C56.1106 64.6523 55.1905 64.7465 54.2282 64.7465H43.6861V64.7465Z" fill="white"/>
</svg>
